<svg width="416" height="312" viewBox="0 0 416 312" fill="none" xmlns="http://www.w3.org/2000/svg">
<path d="M416 102.258L208 0.793579L0 102.258L73.5865 138.155V251.509L208.007 311.206L342.427 251.509V138.148L366.795 126.262V216.131H391.16V114.376L416 102.258ZM318.063 235.672L208.007 284.547L97.9513 235.672V150.041L208 203.724L318.063 150.033V235.672ZM208 176.615L55.5728 102.258L208 27.9018L360.428 102.258L208 176.615Z" fill="black"/>
<g clip-path="url(#clip0_24:20)">
<path d="M173.876 136.265C164.698 133.541 156.721 129.679 150.459 124.578C147.886 122.449 145.742 120.221 143.64 117.918C143.64 117.918 130.131 103.286 141.282 86.5985C141.282 86.5985 144.541 80.5079 154.662 74.3677C154.662 74.3677 151.875 74.3924 150.374 74.5658C142.225 75.5066 133.862 79.0966 134.034 84.2959C134.077 85.8557 134.462 87.366 134.591 88.8763C134.72 90.5847 134.291 92.3178 133.047 93.8776C131.975 95.2393 130.131 96.1554 128.673 97.3438C127.172 98.557 125.971 99.993 125.671 101.503C125.37 103.162 126.443 104.524 128.244 105.762C129.616 106.752 131.246 107.643 132.704 108.584C137.036 111.332 136.864 112.917 136.135 116.259C135.792 117.646 136.006 119.107 136.607 120.444C138.58 124.554 147.414 124.9 152.218 127.426C153.204 127.946 154.062 128.54 154.619 129.258C155.263 130.025 155.22 130.793 155.477 131.585C155.777 132.65 156.549 133.69 158.093 134.333C159.637 134.977 161.567 135.299 163.368 135.596C166.671 136.066 170.059 136.24 173.447 136.314C173.533 136.265 173.704 136.265 173.876 136.265Z" fill="#E32286"/>
<path d="M272.173 98.5322C277.748 90.3618 274.532 83.6522 274.532 83.6522C271.187 71.0747 254.804 65.2317 254.804 65.2317C261.709 76.0017 259.864 81.1268 259.864 81.1268C252.316 60.0819 224.654 60.7008 224.654 60.7008C243.053 64.5384 250.515 77.8586 250.515 77.8586C257.763 89.619 253.389 97.8389 253.389 97.8389C265.697 92.9615 266.34 84.5187 266.34 84.5187C267.541 102.395 250.644 111.258 250.644 111.258C265.011 111.729 274.532 105.489 274.532 105.489C264.368 114.972 247.47 119.627 228.686 120.617C225.169 120.815 221.609 120.889 218.049 120.815C218.049 120.815 214.876 120.766 214.147 120.691L214.061 120.691C221.781 125.395 237.434 124.876 237.434 124.876C222.767 128.391 208.7 125.767 208.7 125.767C208.7 125.767 189.787 122.92 181.252 112.15C172.718 101.379 185.112 90.857 185.112 90.857C203.897 87.0937 216.548 82.0181 216.548 82.0181C242.924 71.149 230.573 65.504 230.573 65.504C221.266 59.8838 196.777 62.3349 196.777 62.3349C152.175 66.1478 141.281 86.5985 141.281 86.5985C130.131 103.286 143.64 117.918 143.64 117.918C145.742 120.221 147.886 122.449 150.459 124.578C161.01 133.194 176.363 138.245 194.247 140.3C222.038 143.469 245.883 136.339 245.883 136.339C281.78 126.113 286.712 107.817 286.712 107.817C291.987 91.4017 281.994 81.721 281.994 81.721C279.035 95.7097 272.173 98.5322 272.173 98.5322ZM188.672 74.4914C189.958 73.7487 192.017 73.7487 193.304 74.4914C194.59 75.2342 194.59 76.4226 193.304 77.1654C192.017 77.9082 189.958 77.9082 188.672 77.1654C187.385 76.4226 187.385 75.2342 188.672 74.4914Z" fill="url(#paint0_linear_24:20)"/>
<path d="M230.487 65.5041C221.18 59.8838 196.692 62.335 196.692 62.335C152.132 66.1726 141.239 86.6233 141.239 86.6233C130.088 103.311 143.597 117.943 143.597 117.943C145.742 120.518 149.773 124.034 149.773 124.034C154.877 128.416 161.31 131.486 161.31 131.486C167.443 134.432 172.46 135.893 172.46 135.893C177.778 137.478 179.623 137.849 179.623 137.849C179.451 137.8 178.293 137.379 178.293 137.379C178.293 137.379 167.829 133.417 161.181 127.649C161.181 127.649 153.976 121.805 153.204 114.526C153.204 114.526 149.13 101.082 172.375 93.8528C172.375 93.8528 177.607 92.4168 179.623 92.0454C181.595 91.6493 184.898 90.8818 184.898 90.8818C203.682 87.1185 216.334 82.0429 216.334 82.0429C242.838 71.1491 230.487 65.5041 230.487 65.5041ZM193.346 77.1902C192.06 77.933 190.001 77.933 188.715 77.1902C187.428 76.4474 187.428 75.259 188.715 74.5163C190.001 73.7735 192.06 73.7735 193.346 74.5163C194.633 75.259 194.633 76.4474 193.346 77.1902Z" fill="url(#paint1_radial_24:20)"/>
<path d="M169.887 80.5821L150.717 86.4004C150.631 86.4499 149.988 86.5737 149.43 87.1432C149.43 87.1432 142.997 93.3824 149.216 95.2393C149.216 95.2393 153.076 96.4277 158.394 96.6753L173.704 86.9451L169.887 80.5821Z" fill="url(#paint2_linear_24:20)"/>
</g>
<defs>
<linearGradient id="paint0_linear_24:20" x1="215.175" y1="148.274" x2="214.039" y2="84.6493" gradientUnits="userSpaceOnUse">
<stop stop-color="#E01D84"/>
<stop offset="0.401" stop-color="#DF1D85"/>
<stop offset="0.77" stop-color="#932C87"/>
<stop offset="1" stop-color="#5D2F88"/>
</linearGradient>
<radialGradient id="paint1_radial_24:20" cx="0" cy="0" r="1" gradientUnits="userSpaceOnUse" gradientTransform="translate(202.078 72.8937) rotate(-29.8795) scale(60.2803 43.5473)">
<stop stop-color="#E01D84"/>
<stop offset="0.139" stop-color="#DE1E85"/>
<stop offset="0.285" stop-color="#D62085"/>
<stop offset="0.434" stop-color="#C92386"/>
<stop offset="0.586" stop-color="#B72786"/>
<stop offset="0.739" stop-color="#9D2B87"/>
<stop offset="0.891" stop-color="#7C2E88"/>
<stop offset="1" stop-color="#5D2F88"/>
</radialGradient>
<linearGradient id="paint2_linear_24:20" x1="148.421" y1="95.0224" x2="160.034" y2="74.9079" gradientUnits="userSpaceOnUse">
<stop stop-color="#E01D84"/>
<stop offset="0.238" stop-color="#DA1E85"/>
<stop offset="0.658" stop-color="#C72085"/>
<stop offset="0.999" stop-color="#B52284"/>
</linearGradient>
<clipPath id="clip0_24:20">
<rect width="140.391" height="140.391" fill="white" transform="matrix(0.866044 -0.499967 0.866044 0.499967 86 100.191)"/>
</clipPath>
</defs>
</svg>
