<?xml version="1.0" ?>
<svg id="solid" viewBox="0 0 512 512" xmlns="http://www.w3.org/2000/svg">
    <path d="M344,408v16a40.045,40.045,0,0,1-40,40h-8.8a40.005,40.005,0,0,1-78.392,0H208a40.045,40.045,0,0,1-40-40V408a24.027,24.027,0,0,1,24-24H320A24.027,24.027,0,0,1,344,408ZM366.732,60.258A160.092,160.092,0,1,0,150.2,296.036,53.19,53.19,0,0,1,168,336a24.027,24.027,0,0,0,24,24H320a24.028,24.028,0,0,0,24-24,53.344,53.344,0,0,1,17.875-40.032,160.293,160.293,0,0,0,4.857-235.708Z"
          style="fill:#3b3b3b"/>
</svg>
