<svg xmlns="http://www.w3.org/2000/svg" viewBox="0 0 512 512" style="enable-background:new 0 0 512 512" xml:space="preserve"><path d="M255.996 106c-82.705 0-150 67.295-150 150s67.295 150 150 150 150-67.295 150-150-67.295-150-150-150zM411.696 346c-15.6 27.299-38.699 50.099-66 66l90.3 24.3-24.3-90.3zM255.996 0l-46.199 82.299C224.497 78.1 240.095 76 255.996 76s31.5 2.1 46.2 6.299L255.996 0zM75.996 76l24.3 90c15.601-27.301 38.101-49.801 65.4-65.7L75.996 76zM82.297 209.5l-82 46.5 82 46.5c-4.2-14.7-6.301-30.3-6.301-46.5 0-16.201 2.1-31.8 6.301-46.5zM100.296 346l-24.3 90.3 90.3-24.3c-27.3-15.901-50.399-38.701-66-66zM255.996 436c-16.199 0-31.8-2.1-46.8-6.301l46.8 82.301 46.8-82.301c-15 4.2-30.601 6.301-46.8 6.301zM346.159 100.452a181.09 181.09 0 0 1 65.514 65.596l24.426-90.004-89.94 24.408zM511.703 256.146l-81.951-46.39c3.941 14.786 6.244 30.233 6.244 46.244 0 16.135-2.333 31.703-6.334 46.593l82.041-46.447z"/></svg>
