<svg width="274" height="87" viewBox="0 0 274 87" fill="none" xmlns="http://www.w3.org/2000/svg">
<path d="M11.3476 86.0076C8.56223 86.0076 6.70621 84.1271 6.08744 80.994L0.517771 58.4322C0.208313 57.8053 0.208313 56.8652 0.208313 56.2385C0.208313 55.2984 0.517771 54.3584 1.446 53.7317C2.06482 53.1051 2.9931 52.7918 4.23083 52.7918C6.39675 52.7918 7.63458 53.7317 7.9439 55.9253L12.2751 76.6067L17.8448 55.9253C18.4637 53.7317 20.0107 52.7918 22.1761 52.7918C24.6514 52.7918 26.1986 53.7317 26.5073 55.9253L32.3864 76.6067L36.4111 56.5516C37.0301 54.0449 38.2678 52.7918 40.4337 52.7918C41.6714 52.7918 42.5999 53.1051 43.2191 53.7317C43.838 54.3584 44.4568 55.2985 44.4568 56.2385C44.4568 56.8652 44.1473 57.8053 44.1473 58.4321L37.9589 80.9939C37.6494 82.8739 37.0306 83.8139 36.4117 84.7537C35.2355 85.5852 33.8281 86.0238 32.3892 86.0071C29.9138 86.0071 28.058 84.4402 27.129 81.9334L22.1775 63.1324L17.2271 81.3071C16.2984 84.4406 14.4416 86.0076 11.3476 86.0076ZM69.8291 52.7918C72.6146 52.7918 74.4706 54.0452 75.3988 56.8654L84.3721 80.3671C84.6815 81.3072 84.991 81.934 84.991 82.5608C84.991 83.5008 84.3721 84.4408 83.7533 85.0675C82.825 85.6942 81.8966 86.0076 80.9679 86.0077C79.1113 86.0077 77.5642 84.7543 76.6367 82.5608L75.399 78.4869H63.3311L61.784 82.5608C61.1652 84.7541 59.9274 86.0077 58.0709 86.0077C56.8332 86.0077 55.9047 85.6943 55.2855 85.0675C54.6667 84.4408 54.3573 83.5008 54.3573 82.5608C54.3573 81.6209 54.3573 80.994 54.6667 80.3671L63.64 57.492C64.8783 54.3584 67.0437 52.7918 69.8291 52.7918ZM69.5197 60.6256L65.497 72.2199H73.2326L69.5197 60.6256ZM98.6057 58.1188C98.6057 54.672 99.8434 52.7918 102.628 52.7918C105.104 52.7918 106.341 54.672 106.341 58.1188V78.8003H113.149C116.862 78.8003 118.718 79.7404 118.718 82.2472C118.718 84.4408 116.862 85.3807 113.149 85.3807H103.866C102.009 85.3807 100.462 85.0673 99.8433 84.4406C98.915 83.8139 98.6056 82.5607 98.6056 80.9939L98.6057 58.1188ZM139.76 80.6804C139.76 84.1271 138.522 86.0076 135.737 86.0076C133.262 86.0076 132.024 84.1271 132.024 80.6804V58.1188C132.024 54.672 133.262 52.7918 135.737 52.7918C138.523 52.7918 139.76 54.672 139.76 58.1188V80.6804ZM155.231 69.3996C155.231 64.6992 156.778 60.6256 159.562 57.4918C162.657 54.3584 166.679 52.7918 171.63 52.7918C176.89 52.7918 180.913 54.3586 184.007 57.492C187.101 60.6253 188.339 64.386 188.339 69.3997C188.339 74.1001 187.101 78.1737 184.007 81.3072C180.913 84.4408 176.89 86.0077 171.63 86.0077C166.679 86.0077 162.657 84.4409 159.562 81.3072C156.778 78.1742 155.231 74.1 155.231 69.3996ZM163.586 69.3996C163.586 72.2199 164.204 74.4134 165.442 75.9802C166.989 78.1736 169.155 79.1135 171.631 79.1135C174.416 79.1135 176.581 78.1736 178.128 75.9802C179.366 74.4132 179.985 72.2197 179.985 69.3996C179.985 66.5795 179.366 64.386 178.128 62.819C176.581 60.6256 174.415 59.6855 171.631 59.6855C168.846 59.6855 166.989 60.6256 165.442 62.819C164.204 64.3859 163.586 66.5794 163.586 69.3996ZM208.143 59.9987C205.357 59.9987 203.501 59.9988 202.883 59.6855C200.717 59.3722 199.479 58.4321 199.479 56.5517C199.479 54.3584 201.336 53.105 205.049 53.105H218.973C222.686 53.105 224.542 54.3584 224.542 56.5517C224.542 58.4321 223.305 59.3722 221.448 59.6855C220.52 59.9988 218.973 59.9987 215.878 59.9987V80.6804C215.878 84.1271 214.641 86.0076 212.165 86.0076C209.38 86.0076 208.143 84.1271 208.143 80.6804V59.9987Z" fill="#082679"/>
<path fill-rule="evenodd" clip-rule="evenodd" d="M214.963 29.1662C214.962 28.1027 215.275 27.0627 215.863 26.1778C216.452 25.293 217.288 24.6031 218.267 24.1955C219.247 23.788 220.324 23.6811 221.364 23.8884C222.404 24.0956 223.359 24.6078 224.109 25.36C224.858 26.1121 225.369 27.0705 225.575 28.1137C225.781 29.1569 225.674 30.2381 225.267 31.2203C224.861 32.2025 224.173 33.0416 223.291 33.6313C222.408 34.221 221.372 34.5349 220.311 34.5331H214.963V29.1662ZM230.137 29.2133C230.125 26.599 229.084 24.0951 227.242 22.2466C225.399 20.3981 222.903 19.3544 220.297 19.3429C218.692 19.3434 217.113 19.7423 215.699 20.5042C216.212 19.3202 216.945 18.2447 217.857 17.3344C219.27 15.9234 221.067 14.9634 223.023 14.5754C224.978 14.1874 227.004 14.3886 228.846 15.1538C230.687 15.9191 232.262 17.214 233.371 18.8754C234.48 20.5369 235.074 22.4905 235.079 24.4902V34.6114L228.539 34.5799C229.581 32.9854 230.137 31.1201 230.137 29.2132V29.2133ZM239.46 34.6117V24.4899C239.465 21.8185 238.734 19.1976 237.349 16.9162C235.963 14.6349 233.977 12.7817 231.608 11.5611C229.239 10.3405 226.581 9.79996 223.925 9.99901C221.27 10.1981 218.721 11.129 216.559 12.6892C217.277 11.3124 218.199 10.0531 219.294 8.95437C221.392 6.85822 224.06 5.4318 226.965 4.85487C229.869 4.27795 232.878 4.57636 235.613 5.71247C238.349 6.84859 240.688 8.77157 242.335 11.2391C243.983 13.7065 244.865 16.6081 244.872 19.578L244.886 37.1534C244.889 37.7935 244.931 38.4328 245.011 39.0679C245.483 42.5544 247.198 45.7516 249.838 48.0682C252.478 50.3847 255.865 51.6639 259.372 51.6691C262.392 51.672 265.335 50.7222 267.787 48.9543C267.071 50.3281 266.154 51.5869 265.067 52.6891C262.969 54.7868 260.3 56.2146 257.394 56.7924C254.489 57.3703 251.478 57.0723 248.741 55.9362C246.004 54.8 243.664 52.8764 242.015 50.408C240.366 47.9395 239.483 45.0367 239.476 42.0653L239.46 34.6117ZM249.283 27.0322L255.822 27.0479C254.624 28.8766 254.067 31.0537 254.24 33.2353C254.413 35.4168 255.305 37.4784 256.776 39.0945C258.247 40.7106 260.213 41.7889 262.363 42.1593C264.513 42.5297 266.725 42.1709 268.649 41.1397C268.134 42.3187 267.408 43.3931 266.507 44.3095C265.095 45.7246 263.298 46.6882 261.341 47.0785C259.384 47.4689 257.356 47.2685 255.512 46.5026C253.669 45.7367 252.094 44.4398 250.985 42.7757C249.876 41.1117 249.284 39.1552 249.284 37.1537L249.283 27.0322ZM249.252 22.6224V19.578C249.232 14.4364 247.182 9.51227 243.551 5.88369C239.919 2.2551 235.003 0.217766 229.878 0.217766C224.752 0.217766 219.836 2.2551 216.205 5.88369C212.573 9.51227 210.524 14.4364 210.504 19.578V35.192C210.504 38.1893 212.193 39.0207 214.65 39.0207H235.096V42.065C235.115 47.2066 237.165 52.1307 240.797 55.7593C244.428 59.3879 249.344 61.4252 254.469 61.4252C259.595 61.4252 264.511 59.3879 268.142 55.7593C271.774 52.1307 273.824 47.2066 273.843 42.065V32.493L273.857 32.4615V26.5769C273.857 24.6938 272.763 22.6224 269.759 22.6224H249.252ZM264.035 37.8597C262.614 37.8597 261.251 37.2935 260.246 36.2855C259.242 35.2776 258.677 33.9105 258.677 32.4851C258.677 31.0597 259.242 29.6926 260.246 28.6847C261.251 27.6767 262.614 27.1105 264.035 27.1105H269.384V32.4772C269.385 33.9024 268.823 35.2699 267.82 36.2792C266.817 37.2885 265.455 37.857 264.035 37.8597Z" fill="#082679"/>
<path d="M57.152 20.984H52.448V31H51.12V19.8H58.48V31H57.152V20.984ZM61.1298 25.8C61.1298 25.704 61.1244 25.5813 61.1138 25.432C61.1138 25.272 61.1084 25.112 61.0978 24.952C61.0871 24.7813 61.0711 24.616 61.0498 24.456C61.0391 24.296 61.0231 24.1573 61.0018 24.04H59.9298V23H62.0578L62.2178 24.12H62.2978C62.5858 23.7467 62.9484 23.4373 63.3858 23.192C63.8338 22.936 64.3778 22.808 65.0178 22.808C66.1591 22.808 67.0178 23.1227 67.5938 23.752C68.1698 24.3813 68.4578 25.4107 68.4578 26.84C68.4578 27.512 68.3564 28.12 68.1538 28.664C67.9618 29.1973 67.6844 29.6507 67.3218 30.024C66.9591 30.3973 66.5218 30.6853 66.0098 30.888C65.4978 31.0907 64.9324 31.192 64.3138 31.192C64.0898 31.192 63.8871 31.1813 63.7057 31.16C63.5351 31.1493 63.3751 31.128 63.2258 31.096C63.0871 31.0747 62.9484 31.0427 62.8098 31C62.6711 30.9573 62.5218 30.904 62.3618 30.84V34.2H61.1298V25.8ZM64.8098 23.976C64.4898 23.976 64.1858 24.0347 63.8978 24.152C63.6204 24.2693 63.3698 24.424 63.1458 24.616C62.9324 24.808 62.7564 25.0213 62.6178 25.256C62.4791 25.4907 62.3938 25.7253 62.3618 25.96V29.608C62.5964 29.768 62.8578 29.896 63.1458 29.992C63.4444 30.0773 63.8338 30.12 64.3138 30.12C65.1671 30.12 65.8498 29.8427 66.3618 29.288C66.8738 28.7227 67.1298 27.9013 67.1298 26.824C67.1298 25.9173 66.9484 25.2187 66.5858 24.728C66.2338 24.2267 65.6418 23.976 64.8098 23.976ZM76.1795 25.976L76.2275 24.92H76.1795L71.6835 31H70.5475V23H71.7955V28.168L71.7475 29.176H71.8115L76.2755 23H77.4275V31H76.1795V25.976ZM95.255 24.088H91.079V31H89.847V23H96.503V31H95.255V24.088ZM98.8808 27C98.8808 25.7093 99.2168 24.6907 99.8888 23.944C100.561 23.1867 101.521 22.808 102.769 22.808C103.441 22.808 104.017 22.92 104.497 23.144C104.987 23.3573 105.393 23.6507 105.713 24.024C106.033 24.3973 106.267 24.84 106.417 25.352C106.577 25.864 106.657 26.4133 106.657 27C106.657 27.64 106.571 28.2213 106.401 28.744C106.23 29.256 105.979 29.6933 105.649 30.056C105.318 30.4187 104.907 30.7013 104.417 30.904C103.937 31.096 103.387 31.192 102.769 31.192C102.107 31.192 101.531 31.0853 101.041 30.872C100.55 30.648 100.145 30.3493 99.8248 29.976C99.5048 29.6027 99.2648 29.16 99.1048 28.648C98.9554 28.136 98.8808 27.5867 98.8808 27ZM100.209 27C100.209 27.3733 100.251 27.7467 100.337 28.12C100.433 28.4933 100.582 28.8293 100.785 29.128C100.987 29.4267 101.249 29.6667 101.569 29.848C101.899 30.0293 102.299 30.12 102.769 30.12C103.622 30.12 104.262 29.8587 104.689 29.336C105.126 28.8027 105.345 28.024 105.345 27C105.345 26.616 105.297 26.2427 105.201 25.88C105.115 25.5067 104.966 25.1707 104.753 24.872C104.55 24.5733 104.283 24.3333 103.953 24.152C103.633 23.9707 103.238 23.88 102.769 23.88C101.915 23.88 101.275 24.1413 100.849 24.664C100.422 25.1867 100.209 25.9653 100.209 27ZM116.619 32.92H115.531V31H109.099V32.92H108.011V29.912H108.907C109.003 29.7947 109.131 29.5867 109.291 29.288C109.451 28.9787 109.605 28.552 109.755 28.008C109.904 27.4533 110.037 26.7707 110.155 25.96C110.272 25.1387 110.341 24.152 110.363 23H115.387V29.912H116.619V32.92ZM114.139 29.928V24.072H111.499C111.477 24.5307 111.435 25.0267 111.371 25.56C111.317 26.0933 111.237 26.6267 111.131 27.16C111.024 27.6827 110.891 28.184 110.731 28.664C110.581 29.144 110.405 29.5653 110.203 29.928H114.139ZM126.212 32.92H125.124V31H118.692V32.92H117.604V29.912H118.5C118.596 29.7947 118.724 29.5867 118.884 29.288C119.044 28.9787 119.199 28.552 119.348 28.008C119.498 27.4533 119.631 26.7707 119.748 25.96C119.866 25.1387 119.935 24.152 119.956 23H124.98V29.912H126.212V32.92ZM123.732 29.928V24.072H121.092C121.071 24.5307 121.028 25.0267 120.964 25.56C120.911 26.0933 120.831 26.6267 120.724 27.16C120.618 27.6827 120.484 28.184 120.324 28.664C120.175 29.144 119.999 29.5653 119.796 29.928H123.732ZM135.214 29.992C135.022 30.1627 134.793 30.3227 134.526 30.472C134.27 30.6213 133.987 30.7493 133.678 30.856C133.369 30.9627 133.043 31.0427 132.702 31.096C132.371 31.16 132.035 31.192 131.694 31.192C131.054 31.192 130.489 31.096 129.998 30.904C129.507 30.7013 129.097 30.4187 128.766 30.056C128.435 29.6827 128.185 29.24 128.014 28.728C127.843 28.216 127.758 27.64 127.758 27C127.758 26.328 127.849 25.7307 128.03 25.208C128.222 24.6853 128.494 24.248 128.846 23.896C129.198 23.544 129.625 23.2773 130.126 23.096C130.627 22.904 131.187 22.808 131.806 22.808C132.254 22.808 132.697 22.8667 133.134 22.984C133.571 23.1013 133.955 23.3253 134.286 23.656C134.627 23.976 134.889 24.424 135.07 25C135.251 25.5653 135.315 26.3013 135.262 27.208H129.07C129.07 28.168 129.326 28.888 129.838 29.368C130.361 29.8373 131.054 30.072 131.918 30.072C132.206 30.072 132.489 30.04 132.766 29.976C133.054 29.9013 133.326 29.816 133.582 29.72C133.838 29.624 134.062 29.5173 134.254 29.4C134.457 29.2827 134.611 29.176 134.718 29.08L135.214 29.992ZM131.838 23.864C131.486 23.864 131.15 23.9013 130.83 23.976C130.521 24.0507 130.243 24.1787 129.998 24.36C129.763 24.5307 129.566 24.76 129.406 25.048C129.257 25.3253 129.161 25.672 129.118 26.088H134.094C134.041 25.384 133.811 24.84 133.406 24.456C133.011 24.0613 132.489 23.864 131.838 23.864ZM137.88 25.8C137.88 25.704 137.874 25.5813 137.864 25.432C137.864 25.272 137.858 25.112 137.848 24.952C137.837 24.7813 137.821 24.616 137.8 24.456C137.789 24.296 137.773 24.1573 137.752 24.04H136.68V23H138.808L138.968 24.12H139.048C139.336 23.7467 139.698 23.4373 140.136 23.192C140.584 22.936 141.128 22.808 141.768 22.808C142.909 22.808 143.768 23.1227 144.344 23.752C144.92 24.3813 145.208 25.4107 145.208 26.84C145.208 27.512 145.106 28.12 144.904 28.664C144.712 29.1973 144.434 29.6507 144.072 30.024C143.709 30.3973 143.272 30.6853 142.76 30.888C142.248 31.0907 141.682 31.192 141.064 31.192C140.84 31.192 140.637 31.1813 140.456 31.16C140.285 31.1493 140.125 31.128 139.976 31.096C139.837 31.0747 139.698 31.0427 139.56 31C139.421 30.9573 139.272 30.904 139.112 30.84V34.2H137.88V25.8ZM141.56 23.976C141.24 23.976 140.936 24.0347 140.648 24.152C140.37 24.2693 140.12 24.424 139.896 24.616C139.682 24.808 139.506 25.0213 139.368 25.256C139.229 25.4907 139.144 25.7253 139.112 25.96V29.608C139.346 29.768 139.608 29.896 139.896 29.992C140.194 30.0773 140.584 30.12 141.064 30.12C141.917 30.12 142.6 29.8427 143.112 29.288C143.624 28.7227 143.88 27.9013 143.88 26.824C143.88 25.9173 143.698 25.2187 143.336 24.728C142.984 24.2267 142.392 23.976 141.56 23.976ZM149.122 27.416L147.41 31H146.034L148.082 26.904L146.242 23H147.634L149.09 26.456H150.098V23H151.346V26.456H152.21L153.906 23H155.218L153.33 26.712L155.442 31H154.017L152.306 27.416H151.346V31H150.098V27.416H149.122ZM159.387 27.384H158.507V31H157.275V23H158.507V26.424H159.387L162.539 23H164.043L160.507 26.792L163.419 29.928H164.459V31H162.811L159.387 27.384ZM173.589 29.992C173.397 30.1627 173.168 30.3227 172.901 30.472C172.645 30.6213 172.362 30.7493 172.053 30.856C171.744 30.9627 171.418 31.0427 171.077 31.096C170.746 31.16 170.41 31.192 170.069 31.192C169.429 31.192 168.864 31.096 168.373 30.904C167.882 30.7013 167.472 30.4187 167.141 30.056C166.81 29.6827 166.56 29.24 166.389 28.728C166.218 28.216 166.133 27.64 166.133 27C166.133 26.328 166.224 25.7307 166.405 25.208C166.597 24.6853 166.869 24.248 167.221 23.896C167.573 23.544 168 23.2773 168.501 23.096C169.002 22.904 169.562 22.808 170.181 22.808C170.629 22.808 171.072 22.8667 171.509 22.984C171.946 23.1013 172.33 23.3253 172.661 23.656C173.002 23.976 173.264 24.424 173.445 25C173.626 25.5653 173.69 26.3013 173.637 27.208H167.445C167.445 28.168 167.701 28.888 168.213 29.368C168.736 29.8373 169.429 30.072 170.293 30.072C170.581 30.072 170.864 30.04 171.141 29.976C171.429 29.9013 171.701 29.816 171.957 29.72C172.213 29.624 172.437 29.5173 172.629 29.4C172.832 29.2827 172.986 29.176 173.093 29.08L173.589 29.992ZM170.213 23.864C169.861 23.864 169.525 23.9013 169.205 23.976C168.896 24.0507 168.618 24.1787 168.373 24.36C168.138 24.5307 167.941 24.76 167.781 25.048C167.632 25.3253 167.536 25.672 167.493 26.088H172.469C172.416 25.384 172.186 24.84 171.781 24.456C171.386 24.0613 170.864 23.864 170.213 23.864Z" fill="#082679"/>
</svg>
